<?xml version="1.0" encoding="UTF-8"?> <svg xmlns="http://www.w3.org/2000/svg" width="477.34" height="438.85" viewBox="0 0 477.34 438.85"><defs><style> .cls-1 { fill: #0069a4; } </style></defs><title>Asset 1</title><g id="Layer_2" data-name="Layer 2"><g id="Layer_1-2" data-name="Layer 1"><g><path class="cls-1" d="M209.56,263H164.12L114,111.56c-.32-1.61-1.42-2.42-3.3-2.42a4.14,4.14,0,0,0-3.93,2.42L57.68,263H11.62q3.93-14,16.9-55.75t25.23-79Q67.43,86.91,70.42,82.23,76.07,74,86.93,69.66a62.76,62.76,0,0,1,23.58-4.35A62.16,62.16,0,0,1,134,69.66Q144.78,74,150.44,82.23q3.47,4.84,17,45.76,8.34,25.14,24.84,79Q202.33,239.67,209.56,263Z" transform="translate(-10.8 -65.31)"></path><path class="cls-1" d="M463.06,192.51q0,34.13-25.78,54.42Q414,265.28,380.36,265.28q-32.7,0-55-18-25-20.13-25-54.74V66.28H342V185.39q0,15.47,12.89,24.79,11.79,8.53,28.46,8.53,16,0,27-8.21,12.27-9.17,12.26-25.11V66.28h40.41Z" transform="translate(-10.8 -65.31)"></path></g><g><path class="cls-1" d="M177.57,504.17l-123.91-49v49H10.8V438.87q0-23.52,11.6-38,13.53-16.92,39.8-16.92h53.33q7.41,0,11.44-5.05a18.57,18.57,0,0,0,4-11.95,19.51,19.51,0,0,0-3.87-12.35,13.93,13.93,0,0,0-11.6-5.61H10.8V307.38h112q25.14,0,39.8,18.51,13.21,16.74,13.22,41t-13.22,40.87q-14.65,18.68-39.8,18.67H95.71l81.86,31.27Z" transform="translate(-10.8 -65.31)"></path><path class="cls-1" d="M488.14,504.13H441.57l-51.4-151.47c-.33-1.61-1.45-2.42-3.39-2.42a4.28,4.28,0,0,0-4,2.42L332.48,504.13H285.27q4-14,17.32-55.76t25.86-78.95q14-41.42,17.08-46.08,5.81-8.22,16.92-12.57a69.1,69.1,0,0,1,48.26,0q11,4.35,16.84,12.57,3.54,4.83,17.4,45.76,8.54,25.13,25.46,78.95Q480.71,480.77,488.14,504.13Z" transform="translate(-10.8 -65.31)"></path></g></g></g></svg> 