<?xml version="1.0" encoding="UTF-8"?> <svg xmlns="http://www.w3.org/2000/svg" width="177.35" height="41.21" viewBox="0 0 177.35 41.21"><defs><style> .cls-1 { fill: #fff; } </style></defs><title>Asset 2</title><g id="Layer_2" data-name="Layer 2"><g id="Layer_1-2" data-name="Layer 1"><g><path class="cls-1" d="M42,54.2h-9.6L21.78,23a.62.62,0,0,0-.7-.5.89.89,0,0,0-.83.5L9.89,54.2H.17Q1,51.31,3.74,42.71T9.06,26.44a86.74,86.74,0,0,1,3.52-9.5,7.53,7.53,0,0,1,3.49-2.59,13.73,13.73,0,0,1,5-.89,13.54,13.54,0,0,1,5,.89,7.47,7.47,0,0,1,3.47,2.59q.73,1,3.59,9.43,1.76,5.19,5.25,16.27Q40.43,49.39,42,54.2Z" transform="translate(-0.17 -13.46)"></path><path class="cls-1" d="M81.91,39.67a13.4,13.4,0,0,1-5.45,11.21,19.13,19.13,0,0,1-12,3.78A18.17,18.17,0,0,1,52.82,51a13.59,13.59,0,0,1-5.28-11.28v-26h8.8V38.2a6,6,0,0,0,2.72,5.11,10.16,10.16,0,0,0,6,1.76,9.49,9.49,0,0,0,5.71-1.69,6.06,6.06,0,0,0,2.59-5.18V13.66h8.54Z" transform="translate(-0.17 -13.46)"></path><path class="cls-1" d="M127.12,54.21,101.59,44.1V54.2H92.76V40.75a12.11,12.11,0,0,1,2.39-7.83q2.79-3.5,8.2-3.49h11a2.86,2.86,0,0,0,2.36-1,3.87,3.87,0,0,0,.83-2.46,4,4,0,0,0-.8-2.55,2.89,2.89,0,0,0-2.39-1.16H92.76V13.66h23.07a9.89,9.89,0,0,1,8.2,3.81,13.21,13.21,0,0,1,2.73,8.46A13.15,13.15,0,0,1,124,34.35a9.86,9.86,0,0,1-8.2,3.84h-5.58l16.87,6.45Z" transform="translate(-0.17 -13.46)"></path><path class="cls-1" d="M177.52,54.2h-9.6L157.33,23a.62.62,0,0,0-.7-.5.89.89,0,0,0-.83.5L145.44,54.2h-9.73q.84-2.89,3.57-11.49t5.33-16.27a86.74,86.74,0,0,1,3.52-9.5,7.53,7.53,0,0,1,3.49-2.59,13.73,13.73,0,0,1,5-.89,13.54,13.54,0,0,1,5,.89A7.47,7.47,0,0,1,165,16.94q.74,1,3.59,9.43,1.75,5.19,5.24,16.27Q176,49.39,177.52,54.2Z" transform="translate(-0.17 -13.46)"></path></g></g></g></svg> 